<svg width="213" height="213" viewBox="0 0 213 213" fill="none" xmlns="http://www.w3.org/2000/svg">
<path d="M137.101 104.383C135.814 91.015 124.787 80.1615 111.103 78.798C104.067 78.0965 97.4833 79.8457 92.1173 83.2621C86.7513 79.8457 80.1646 78.0965 73.1314 78.798C59.4477 80.1615 48.4211 91.015 47.1335 104.383C46.2012 114.046 50.2219 122.828 57.003 128.607C59.0802 130.378 60.2736 132.904 60.2706 135.595C60.2706 135.61 60.2706 135.625 60.2706 135.64C60.2706 151.067 64.8622 164.83 72.0503 173.852C75.1296 177.718 81.5038 175.51 81.5038 170.615C81.5038 162.68 81.5038 152.47 81.5038 146.354C81.5038 140.836 85.7704 136.02 91.4128 135.662C97.5957 135.27 102.737 140.05 102.737 146.002V170.606C102.737 175.501 109.111 177.715 112.19 173.852C119.378 164.83 123.97 151.067 123.97 135.64C123.97 135.625 123.97 135.61 123.97 135.595C123.967 132.904 125.161 130.378 127.238 128.607C134.01 122.828 138.033 114.049 137.101 104.383Z" fill="white" stroke="#181443" stroke-width="4.89633" stroke-miterlimit="10" stroke-linecap="round" stroke-linejoin="round"/>
<path d="M76.1929 78.646C86.0654 78.646 94.7962 83.432 100.08 90.7536" stroke="#181443" stroke-width="4.89633" stroke-miterlimit="10" stroke-linecap="round" stroke-linejoin="round"/>
<path d="M57.6138 107.143C57.6138 97.1282 65.9315 89.0078 76.1928 89.0078" stroke="#5D4FFF" stroke-width="4.89633" stroke-miterlimit="10" stroke-linecap="round" stroke-linejoin="round" stroke-dasharray="16.84 16.84"/>
<path d="M92.1182 68.2333V57.8232" stroke="#181443" stroke-width="4.89633" stroke-miterlimit="10" stroke-linecap="round" stroke-linejoin="round"/>
<path d="M130.293 54.3522L99.0566 47.4102V54.3522L130.293 68.2333V54.3522Z" fill="white" stroke="#181443" stroke-width="4.89633" stroke-miterlimit="10" stroke-linecap="round" stroke-linejoin="round"/>
<path d="M165 50.8809H130.293V71.7041H165" fill="#5D4FFF"/>
<path d="M165 50.8809H130.293V71.7041H165" stroke="#5D4FFF" stroke-width="4.89633" stroke-miterlimit="10" stroke-linecap="round" stroke-linejoin="round"/>
<path d="M97.8422 37H86.3905C85.7194 37 85.1758 37.5436 85.1758 38.2147V57.8232H99.0569V38.2147C99.0569 37.5436 98.5133 37 97.8422 37Z" fill="#5D4FFF" stroke="#5D4FFF" stroke-width="4.89633" stroke-miterlimit="10" stroke-linecap="round" stroke-linejoin="round"/>
</svg>
