<svg width="213" height="213" viewBox="0 0 213 213" fill="none" xmlns="http://www.w3.org/2000/svg">
<path d="M152.77 92.2714C151.457 78.5155 140.227 67.3448 126.292 65.9399C126.28 65.9375 126.266 65.9375 126.254 65.9351C124.532 65.7648 123.044 67.2076 123.146 68.9365C123.269 70.9824 122.985 73.1418 122.103 75.3911C119.695 81.5382 113.889 85.9209 107.285 86.051C98.1767 86.2331 90.7335 78.9034 90.7335 69.8353C90.7335 69.5278 90.743 69.2251 90.7619 68.9224C90.866 67.2005 89.3688 65.7648 87.6517 65.9351C87.6399 65.9375 87.6281 65.9375 87.6139 65.9399C73.6782 67.3448 62.446 78.5155 61.1357 92.2714C60.1873 102.217 64.2814 111.254 71.1877 117.2C73.3022 119.022 74.5179 121.621 74.5155 124.391C74.5155 124.407 74.5155 124.421 74.5155 124.438C74.5155 140.315 79.1938 154.48 86.5141 163.766C89.6503 167.744 96.1403 165.471 96.1403 160.433C96.1403 152.266 96.1403 141.76 96.1403 135.464C96.1403 129.783 100.485 124.828 106.233 124.461C112.531 124.059 117.765 128.979 117.765 135.102V160.424C117.765 165.462 124.258 167.742 127.391 163.764C134.712 154.478 139.39 140.313 139.39 124.435C139.39 124.419 139.39 124.405 139.39 124.388C139.388 121.619 140.603 119.019 142.718 117.198C149.622 111.254 153.718 102.217 152.77 92.2714Z" fill="white" stroke="#181443" stroke-width="4.3263" stroke-miterlimit="10" stroke-linecap="round" stroke-linejoin="round"/>
<path d="M71.8123 92.9522C71.8123 82.6447 80.2843 74.2886 90.7337 74.2886" stroke="#5D4FFF" stroke-width="4.3263" stroke-miterlimit="10" stroke-linecap="round" stroke-linejoin="round" stroke-dasharray="16.22 16.22"/>
<path d="M118.737 47.042C117.787 47.1815 116.85 47.3636 115.93 47.5907C110.012 49.0429 103.896 49.0429 97.9782 47.5907C97.0605 47.366 96.1262 47.1815 95.1778 47.0443C92.8008 46.6967 90.7029 48.5486 90.736 50.9516C90.7596 52.6664 91.0789 54.4544 91.8027 56.304C94.2104 62.4511 100.017 66.8338 106.621 66.9639C115.729 67.146 123.172 59.8163 123.172 50.7482C123.172 50.734 123.172 50.7198 123.172 50.7056C123.165 48.402 121.015 46.7085 118.737 47.042Z" fill="#5D4FFF" stroke="#5D4FFF" stroke-width="4.3263" stroke-miterlimit="10" stroke-linecap="round" stroke-linejoin="round"/>
</svg>
