<svg width="213" height="213" viewBox="0 0 213 213" fill="none" xmlns="http://www.w3.org/2000/svg">
<path d="M154.866 81.1905C153.473 66.5485 141.547 54.6618 126.754 53.1677C119.147 52.3993 112.026 54.3164 106.225 58.0574C100.419 54.3125 93.3018 52.3993 85.6955 53.1677C70.8983 54.6618 58.9767 66.5523 57.5835 81.1905C56.5784 91.7771 60.9249 101.393 68.2556 107.723C70.5025 109.663 71.7909 112.43 71.7909 115.376C71.7909 115.391 71.7909 115.411 71.7909 115.426C71.7909 132.323 76.7582 147.4 84.5274 157.28C87.8571 161.514 94.7493 159.096 94.7493 153.733C94.7493 145.04 94.7493 133.86 94.7493 127.158C94.7493 121.112 99.3635 115.838 105.464 115.446C112.15 115.019 117.708 120.254 117.708 126.774V153.725C117.708 159.088 124.6 161.514 127.93 157.28C135.699 147.396 140.666 132.323 140.666 115.426C140.666 115.411 140.666 115.391 140.666 115.376C140.662 112.426 141.955 109.659 144.201 107.723C151.524 101.397 155.875 91.7771 154.866 81.1905Z" fill="white" stroke="#181443" stroke-width="5.05103" stroke-miterlimit="10" stroke-linecap="round" stroke-linejoin="round"/>
<path d="M89.0063 53.0005C97.5828 53.0005 105.36 56.3806 111.049 61.8719" stroke="#181443" stroke-width="5.05103" stroke-miterlimit="10" stroke-linecap="round" stroke-linejoin="round"/>
<path d="M119.527 75.1753H92.917V101.785H119.527V75.1753Z" fill="#5D4FFF" stroke="#5D4FFF" stroke-width="5.05103" stroke-miterlimit="10" stroke-linecap="round" stroke-linejoin="round"/>
<path d="M92.9172 88.4824H53" stroke="#5D4FFF" stroke-width="5.05103" stroke-miterlimit="10" stroke-linecap="round" stroke-linejoin="round"/>
<path d="M119.527 88.4824H160.972" stroke="#5D4FFF" stroke-width="5.05103" stroke-miterlimit="10" stroke-linecap="round" stroke-linejoin="round"/>
</svg>
