<svg width="213" height="213" viewBox="0 0 213 213" fill="none" xmlns="http://www.w3.org/2000/svg">
<path d="M165.661 133.116L133.019 115.313H100.38L55.8707 70.8032L46.9678 79.7036L94.4451 127.181H133.019L165.661 144.984" fill="white"/>
<path d="M165.661 133.116L133.019 115.313H100.38L55.8707 70.8032L46.9678 79.7036L94.4451 127.181H133.019L165.661 144.984" stroke="#181443" stroke-width="4.83209" stroke-miterlimit="10" stroke-linecap="round" stroke-linejoin="round"/>
<path d="M94.4453 159.823H135.987V150.032C135.987 148.884 135.058 147.955 133.91 147.955H96.5224C95.3748 147.955 94.4453 148.884 94.4453 150.032V159.823Z" fill="white" stroke="#181443" stroke-width="4.83209" stroke-miterlimit="10" stroke-linecap="round" stroke-linejoin="round"/>
<path d="M124.117 127.181H106.313V147.952H124.117V127.181Z" fill="white" stroke="#181443" stroke-width="4.83209" stroke-miterlimit="10" stroke-linecap="round" stroke-linejoin="round"/>
<path d="M103.348 106.41H133.02" stroke="#181443" stroke-width="4.83209" stroke-miterlimit="10" stroke-linecap="round" stroke-linejoin="round"/>
<path d="M118.184 115.313V106.41" stroke="#181443" stroke-width="4.83209" stroke-miterlimit="10" stroke-linecap="round" stroke-linejoin="round"/>
<path d="M141.923 118.281V58.9353C141.923 55.6587 139.266 53 135.987 53H109.281L100.378 61.9029" stroke="#181443" stroke-width="4.83209" stroke-miterlimit="10" stroke-linecap="round" stroke-linejoin="round"/>
<path d="M91.4771 70.8034L103.345 82.6714C108.263 77.7539 108.263 69.783 103.345 64.8681L97.4097 58.9328C92.4922 54.0152 84.5214 54.0152 79.6064 58.9328L91.4771 70.8034Z" fill="#5D4FFF" stroke="#5D4FFF" stroke-width="4.83209" stroke-miterlimit="10" stroke-linecap="round" stroke-linejoin="round"/>
<path d="M44 159.822H168.626" stroke="#181443" stroke-width="4.83209" stroke-miterlimit="10" stroke-linecap="round" stroke-linejoin="round" stroke-dasharray="29.67 29.67"/>
</svg>
