<svg width="213" height="213" viewBox="0 0 213 213" fill="none" xmlns="http://www.w3.org/2000/svg">
<path d="M125.636 99.6367H86.3635V112.727H125.636V99.6367Z" fill="#5D4FFF" stroke="#5D4FFF" stroke-width="4.35114" stroke-miterlimit="10" stroke-linecap="round" stroke-linejoin="round"/>
<path d="M119.089 158.549L105.999 168.366L92.9062 158.549V112.729H119.089V158.549Z" fill="white" stroke="#5D4FFF" stroke-width="4.35114" stroke-miterlimit="10" stroke-linecap="round" stroke-linejoin="round"/>
<path d="M89.6365 125.82L122.363 122.546" stroke="#181443" stroke-width="4.35114" stroke-miterlimit="10" stroke-linecap="round" stroke-linejoin="round"/>
<path d="M89.6365 138.909L122.363 135.639" stroke="#181443" stroke-width="4.35114" stroke-miterlimit="10" stroke-linecap="round" stroke-linejoin="round"/>
<path d="M89.6365 152.003L122.363 148.729" stroke="#181443" stroke-width="4.35114" stroke-miterlimit="10" stroke-linecap="round" stroke-linejoin="round"/>
<path d="M141.893 64.8026C140.865 53.9978 132.065 45.2263 121.149 44.1238C115.536 43.5568 110.281 44.9714 106 47.732C101.716 44.9686 96.4635 43.5568 90.8507 44.1238C79.9314 45.2263 71.134 54.0007 70.106 64.8026C69.3643 72.6148 72.5716 79.7111 77.9812 84.3818C79.6392 85.8136 80.59 87.8554 80.59 90.029C80.59 90.0404 80.59 90.0547 80.59 90.0662C80.59 93.3681 80.8621 96.5668 81.3489 99.6367H92.9125H97.5317H114.473H119.093H130.656C131.14 96.5697 131.415 93.3709 131.415 90.0662C131.415 90.0547 131.415 90.0404 131.415 90.029C131.412 87.8526 132.366 85.8107 134.024 84.3818C139.428 79.7111 142.638 72.6148 141.893 64.8026Z" fill="white" stroke="#181443" stroke-width="4.35114" stroke-miterlimit="10" stroke-linecap="round" stroke-linejoin="round"/>
<path d="M83.0898 66.9105C83.0898 61.4866 87.4856 57.0908 92.9095 57.0908" stroke="#5D4FFF" stroke-width="4.35114" stroke-miterlimit="10" stroke-linecap="round" stroke-linejoin="round" stroke-dasharray="15.32 15.32"/>
<path d="M93.293 44.0005C101.171 44.0005 108.136 47.8693 112.354 53.7886" stroke="#181443" stroke-width="4.35114" stroke-miterlimit="10" stroke-linecap="round" stroke-linejoin="round"/>
</svg>
